<?xml version="1.0" encoding="utf-8"?>
<!-- Generator: Adobe Illustrator 19.0.0, SVG Export Plug-In . SVG Version: 6.00 Build 0)  -->
<svg version="1.1" id="Layer_1" xmlns="http://www.w3.org/2000/svg" xmlns:xlink="http://www.w3.org/1999/xlink" x="0px" y="0px"
	 viewBox="208 -208 512 512" style="enable-background:new 208 -208 512 512;" xml:space="preserve">
<style type="text/css">
	.st0{fill:#2D2D2C;}
</style>
<g id="XMLID_184_">
	<path id="XMLID_195_" class="st0" d="M338.5,81h53.8v173h-53.8V81z M365.5-5c17.2,0,31.2,14,31.2,31.2s-14,31.2-31.2,31.2
		c-17.3,0-31.2-14-31.2-31.2S348.2-5,365.5-5"/>
	<path id="XMLID_192_" class="st0" d="M426.1,81h51.5v23.7h0.7c7.2-13.6,24.7-27.9,50.9-27.9c54.4,0,64.5,35.8,64.5,82.4V254H540
		v-84.1c0-20.1-0.3-45.9-27.9-45.9c-28,0-32.2,21.9-32.2,44.4V254h-53.7L426.1,81L426.1,81z"/>
</g>
</svg>
